<?xml version="1.0" encoding="iso-8859-1"?>
<!-- Uploaded to: SVG Repo, www.svgrepo.com, Generator: SVG Repo Mixer Tools -->
<svg fill="#000000" version="1.1" id="Layer_1" xmlns="http://www.w3.org/2000/svg" xmlns:xlink="http://www.w3.org/1999/xlink" 
	 viewBox="0 0 491.52 491.52" xml:space="preserve">
<g>
	<g>
		<path d="M0,0v491.52h491.52V0H0z M471.04,471.04H20.48V102.4h450.56V471.04z M471.04,81.92H20.48V20.48h450.56V81.92z"/>
	</g>
</g>
<g>
	<g>
		<rect x="430.08" y="40.96" width="20.48" height="20.48"/>
	</g>
</g>
<g>
	<g>
		<rect x="389.12" y="40.96" width="20.48" height="20.48"/>
	</g>
</g>
<g>
	<g>
		<rect x="348.16" y="40.96" width="20.48" height="20.48"/>
	</g>
</g>
<g>
	<g>
		<rect x="51.2" y="40.96" width="245.76" height="20.48"/>
	</g>
</g>
<g>
	<g>
		<path d="M245.76,215.04c0-50.815-41.345-92.16-92.16-92.16s-92.16,41.345-92.16,92.16c0,47.35,35.912,86.441,81.92,91.556v12.731
			c-11.894,4.241-20.48,15.501-20.48,28.833v71.68c0,16.94,13.78,30.72,30.72,30.72s30.72-13.78,30.72-30.72v-71.68
			c0-13.332-8.586-24.592-20.48-28.833v-12.731C209.848,301.481,245.76,262.39,245.76,215.04z M163.84,419.84
			c0,5.645-4.595,10.24-10.24,10.24c-5.645,0-10.24-4.595-10.24-10.24v-71.68c0-5.645,4.595-10.24,10.24-10.24
			c5.645,0,10.24,4.595,10.24,10.24V419.84z M153.6,286.72c-39.525,0-71.68-32.155-71.68-71.68c0-39.525,32.155-71.68,71.68-71.68
			c39.525,0,71.68,32.155,71.68,71.68C225.28,254.565,193.125,286.72,153.6,286.72z"/>
	</g>
</g>
<g>
	<g>
		<rect x="348.16" y="215.04" width="92.16" height="20.48"/>
	</g>
</g>
<g>
	<g>
		<rect x="276.48" y="276.48" width="163.84" height="20.48"/>
	</g>
</g>
<g>
	<g>
		<rect x="317.44" y="337.92" width="122.88" height="20.48"/>
	</g>
</g>
<g>
	<g>
		<rect x="225.28" y="399.36" width="215.04" height="20.48"/>
	</g>
</g>
</svg>