<svg width="250" height="71" viewBox="0 0 250 71" fill="none" xmlns="http://www.w3.org/2000/svg">
<path d="M19.6328 33.5723L0 0C2.73153 0 6.54428 1.99581 8.10922 2.99371L24.7544 26.7296C26.4617 28.6113 28.7379 29.652 29.6627 29.9371L65.0871 35.7107L63.5933 36.566H24.3276C22.1083 36.566 20.273 34.5702 19.6328 33.5723Z" fill="#EE1D23"/>
<path d="M29.6627 41.2704H61.0325C60.6911 41.9547 57.4758 44.2642 55.9109 45.3333L32.8637 47.044C32.0101 47.044 30.374 48.7547 29.6627 49.6101L12.3772 70.7799V69.0692L26.0349 45.3333C27.4006 42.4252 29.0225 41.413 29.6627 41.2704Z" fill="#EE1D23"/>
<path d="M20.273 42.9811L10.2432 26.7296L16.005 41.2704C16.8586 42.9811 16.6452 44.8344 16.4318 45.5472L10.67 57.9497C10.1579 59.6604 10.5989 62.0839 10.8834 63.0818L19.6328 48.1132C20.9986 45.7182 20.6287 43.6939 20.273 42.9811Z" fill="#EE1D23"/>
<path d="M80.9754 16.97H99.0054V21.41H92.7054V38H87.2154V21.41H80.9754V16.97ZM110.683 16.97C113.483 16.97 115.643 17.62 117.163 18.92C118.683 20.2 119.443 22.01 119.443 24.35C119.443 26.81 118.683 28.73 117.163 30.11C115.643 31.47 113.483 32.15 110.683 32.15H106.723V38H101.233V16.97H110.683ZM110.683 27.83C111.823 27.83 112.693 27.55 113.293 26.99C113.913 26.43 114.223 25.6 114.223 24.5C114.223 23.44 113.913 22.64 113.293 22.1C112.693 21.56 111.823 21.29 110.683 21.29H106.723V27.83H110.683ZM109.723 30.14H115.063L120.073 38H113.863L109.723 30.14ZM129.782 16.97H135.422L144.242 38H138.392L132.452 22.46L126.392 38H120.752L129.782 16.97ZM126.152 30.08H138.422V34.22H126.152V30.08ZM160.799 24.02C160.119 23.16 159.309 22.48 158.369 21.98C157.429 21.48 156.499 21.23 155.579 21.23C154.779 21.23 154.029 21.39 153.329 21.71C152.629 22.01 152.019 22.44 151.499 23C150.979 23.54 150.579 24.19 150.299 24.95C150.019 25.69 149.879 26.5 149.879 27.38C149.879 28.26 150.019 29.08 150.299 29.84C150.579 30.58 150.979 31.23 151.499 31.79C152.019 32.35 152.629 32.79 153.329 33.11C154.029 33.41 154.779 33.56 155.579 33.56C156.459 33.56 157.359 33.34 158.279 32.9C159.219 32.44 160.059 31.83 160.799 31.07L164.009 34.46C163.249 35.26 162.389 35.96 161.429 36.56C160.469 37.14 159.459 37.59 158.399 37.91C157.359 38.23 156.319 38.39 155.279 38.39C153.699 38.39 152.239 38.12 150.899 37.58C149.559 37.02 148.389 36.25 147.389 35.27C146.409 34.27 145.639 33.11 145.079 31.79C144.519 30.45 144.239 29 144.239 27.44C144.239 25.9 144.519 24.48 145.079 23.18C145.639 21.86 146.429 20.71 147.449 19.73C148.469 18.75 149.659 17.99 151.019 17.45C152.399 16.91 153.889 16.64 155.489 16.64C156.529 16.64 157.569 16.79 158.609 17.09C159.649 17.37 160.629 17.78 161.549 18.32C162.469 18.86 163.279 19.5 163.979 20.24L160.799 24.02ZM166.36 16.97H171.85V26.21L179.74 16.97H186.1L171.85 32.75V38H166.36V16.97ZM177.88 25.04L186.58 38H180.01L174.22 29.36L177.88 25.04ZM187.991 16.97H206.051V20.51L194.951 33.65H206.231V38H187.601V34.49L198.701 21.32H187.991V16.97ZM209.104 16.97H225.694V21.29H214.594V25.31H224.614V29.6H214.594V33.68H225.994V38H209.104V16.97ZM238.798 16.97C241.598 16.97 243.758 17.62 245.278 18.92C246.798 20.2 247.558 22.01 247.558 24.35C247.558 26.81 246.798 28.73 245.278 30.11C243.758 31.47 241.598 32.15 238.798 32.15H234.838V38H229.348V16.97H238.798ZM238.798 27.83C239.938 27.83 240.808 27.55 241.408 26.99C242.028 26.43 242.338 25.6 242.338 24.5C242.338 23.44 242.028 22.64 241.408 22.1C240.808 21.56 239.938 21.29 238.798 21.29H234.838V27.83H238.798ZM237.838 30.14H243.178L248.188 38H241.978L237.838 30.14Z" fill="#E60012"/>
<path d="M88.7974 50.784C88.4667 50.56 88.1147 50.384 87.7414 50.256C87.3787 50.1173 87.0214 50.016 86.6694 49.952C86.3281 49.888 86.0081 49.856 85.7094 49.856C84.9841 49.856 84.4027 50 83.9654 50.288C83.5387 50.576 83.3254 50.9707 83.3254 51.472C83.3254 51.9093 83.4374 52.2613 83.6614 52.528C83.8961 52.7947 84.2001 53.0133 84.5734 53.184C84.9467 53.3547 85.3574 53.5093 85.8054 53.648C86.2534 53.776 86.7014 53.92 87.1494 54.08C87.5974 54.2293 88.0081 54.4267 88.3814 54.672C88.7547 54.9067 89.0534 55.216 89.2774 55.6C89.5014 55.9733 89.6134 56.4533 89.6134 57.04C89.6134 57.6587 89.4427 58.1973 89.1014 58.656C88.7601 59.104 88.2854 59.456 87.6774 59.712C87.0694 59.9573 86.3654 60.08 85.5654 60.08C85.0214 60.08 84.4881 60.0107 83.9654 59.872C83.4427 59.7227 82.9521 59.52 82.4934 59.264C82.0347 59.008 81.6294 58.7147 81.2774 58.384L81.8534 57.344C82.2054 57.6747 82.5894 57.9573 83.0054 58.192C83.4214 58.4267 83.8481 58.608 84.2854 58.736C84.7334 58.864 85.1654 58.928 85.5814 58.928C86.3921 58.928 87.0321 58.7627 87.5014 58.432C87.9707 58.1013 88.2054 57.6533 88.2054 57.088C88.2054 56.6507 88.0934 56.2933 87.8694 56.016C87.6454 55.7387 87.3467 55.5147 86.9734 55.344C86.6001 55.1733 86.1894 55.024 85.7414 54.896C85.2934 54.768 84.8401 54.6293 84.3814 54.48C83.9334 54.32 83.5227 54.128 83.1494 53.904C82.7761 53.6693 82.4774 53.3653 82.2534 52.992C82.0294 52.6187 81.9174 52.144 81.9174 51.568C81.9174 50.9813 82.0774 50.4747 82.3974 50.048C82.7174 49.6213 83.1707 49.2907 83.7574 49.056C84.3441 48.8107 85.0214 48.688 85.7894 48.688C86.4401 48.688 87.0747 48.784 87.6934 48.976C88.3227 49.168 88.8721 49.4133 89.3414 49.712L88.7974 50.784ZM90.6427 48.8H92.0187L95.2827 59.184H94.9467L98.1947 48.8H99.4747L102.739 59.184H102.419L105.651 48.8H106.995L103.203 60H101.875L98.6587 49.856H98.9947L95.7307 60H94.4187L90.6427 48.8ZM108.774 48.8H110.054V60H108.774V48.8ZM111.926 48.8H120.518V49.92H116.854V60H115.574V49.92H111.926V48.8ZM129.761 51.2C129.334 50.7627 128.828 50.4213 128.241 50.176C127.665 49.92 127.068 49.792 126.449 49.792C125.82 49.792 125.228 49.9093 124.673 50.144C124.118 50.3787 123.633 50.7093 123.217 51.136C122.801 51.552 122.476 52.0373 122.241 52.592C122.006 53.1467 121.889 53.744 121.889 54.384C121.889 55.0133 122.006 55.6053 122.241 56.16C122.476 56.7147 122.801 57.2 123.217 57.616C123.633 58.032 124.118 58.3627 124.673 58.608C125.228 58.8427 125.82 58.96 126.449 58.96C127.068 58.96 127.66 58.8427 128.225 58.608C128.801 58.3627 129.313 58.0267 129.761 57.6L130.545 58.4C130.182 58.7413 129.772 59.04 129.313 59.296C128.865 59.552 128.396 59.7493 127.905 59.888C127.414 60.0267 126.908 60.096 126.385 60.096C125.574 60.096 124.817 59.952 124.113 59.664C123.42 59.3653 122.806 58.9547 122.273 58.432C121.75 57.9093 121.34 57.3013 121.041 56.608C120.742 55.9147 120.593 55.1733 120.593 54.384C120.593 53.5947 120.742 52.8587 121.041 52.176C121.34 51.4933 121.756 50.8907 122.289 50.368C122.822 49.8453 123.441 49.44 124.145 49.152C124.849 48.864 125.612 48.72 126.433 48.72C126.945 48.72 127.446 48.784 127.937 48.912C128.428 49.04 128.892 49.2267 129.329 49.472C129.766 49.7067 130.166 49.9947 130.529 50.336L129.761 51.2ZM132.852 48.8H134.132V53.904H140.884V48.8H142.164V60H140.884V55.008H134.132V60H132.852V48.8ZM153.795 51.12C153.347 50.704 152.824 50.3787 152.227 50.144C151.64 49.9093 151.032 49.792 150.403 49.792C149.763 49.792 149.166 49.9147 148.611 50.16C148.056 50.3947 147.566 50.7253 147.139 51.152C146.712 51.568 146.382 52.0533 146.147 52.608C145.912 53.152 145.795 53.744 145.795 54.384C145.795 55.024 145.912 55.6213 146.147 56.176C146.382 56.7307 146.712 57.2213 147.139 57.648C147.566 58.0747 148.056 58.4107 148.611 58.656C149.166 58.8907 149.768 59.008 150.419 59.008C151.006 59.008 151.592 58.896 152.179 58.672C152.766 58.4373 153.288 58.128 153.747 57.744L154.499 58.624C154.136 58.912 153.726 59.168 153.267 59.392C152.808 59.616 152.328 59.792 151.827 59.92C151.336 60.0373 150.84 60.096 150.339 60.096C149.518 60.096 148.755 59.952 148.051 59.664C147.347 59.3653 146.728 58.9547 146.195 58.432C145.662 57.9093 145.246 57.3013 144.947 56.608C144.648 55.9147 144.499 55.1733 144.499 54.384C144.499 53.5947 144.648 52.8587 144.947 52.176C145.256 51.4933 145.678 50.8907 146.211 50.368C146.755 49.8453 147.384 49.44 148.099 49.152C148.814 48.864 149.582 48.72 150.403 48.72C150.915 48.72 151.416 48.784 151.907 48.912C152.408 49.0293 152.878 49.2 153.315 49.424C153.763 49.648 154.168 49.92 154.531 50.24L153.795 51.12ZM153.363 54.528H154.499V58.624H153.363V54.528ZM157.602 48.8H165.202V49.92H158.882V53.76H164.53V54.864H158.882V58.896H165.41V60H157.602V48.8ZM171.416 48.8H172.728L177.736 60H176.36L172.04 50.112L167.752 60H166.408L171.416 48.8ZM168.616 55.984H175.416V57.088H168.616V55.984ZM183.764 48.8C185.172 48.8 186.26 49.1307 187.028 49.792C187.796 50.4427 188.18 51.36 188.18 52.544C188.18 53.7707 187.796 54.7253 187.028 55.408C186.26 56.08 185.172 56.416 183.764 56.416H180.788V60H179.508V48.8H183.764ZM183.764 55.312C184.778 55.312 185.562 55.0827 186.116 54.624C186.682 54.1547 186.964 53.472 186.964 52.576C186.964 51.7013 186.682 51.04 186.116 50.592C185.562 50.144 184.778 49.92 183.764 49.92H180.788V55.312H183.764ZM184.148 55.888H185.444L188.292 60H186.836L184.148 55.888ZM197.407 50.784C197.076 50.56 196.724 50.384 196.351 50.256C195.988 50.1173 195.631 50.016 195.279 49.952C194.937 49.888 194.617 49.856 194.319 49.856C193.593 49.856 193.012 50 192.575 50.288C192.148 50.576 191.935 50.9707 191.935 51.472C191.935 51.9093 192.047 52.2613 192.271 52.528C192.505 52.7947 192.809 53.0133 193.183 53.184C193.556 53.3547 193.967 53.5093 194.415 53.648C194.863 53.776 195.311 53.92 195.759 54.08C196.207 54.2293 196.617 54.4267 196.991 54.672C197.364 54.9067 197.663 55.216 197.887 55.6C198.111 55.9733 198.223 56.4533 198.223 57.04C198.223 57.6587 198.052 58.1973 197.711 58.656C197.369 59.104 196.895 59.456 196.287 59.712C195.679 59.9573 194.975 60.08 194.175 60.08C193.631 60.08 193.097 60.0107 192.575 59.872C192.052 59.7227 191.561 59.52 191.103 59.264C190.644 59.008 190.239 58.7147 189.887 58.384L190.463 57.344C190.815 57.6747 191.199 57.9573 191.615 58.192C192.031 58.4267 192.457 58.608 192.895 58.736C193.343 58.864 193.775 58.928 194.191 58.928C195.001 58.928 195.641 58.7627 196.111 58.432C196.58 58.1013 196.815 57.6533 196.815 57.088C196.815 56.6507 196.703 56.2933 196.479 56.016C196.255 55.7387 195.956 55.5147 195.583 55.344C195.209 55.1733 194.799 55.024 194.351 54.896C193.903 54.768 193.449 54.6293 192.991 54.48C192.543 54.32 192.132 54.128 191.759 53.904C191.385 53.6693 191.087 53.3653 190.863 52.992C190.639 52.6187 190.527 52.144 190.527 51.568C190.527 50.9813 190.687 50.4747 191.007 50.048C191.327 49.6213 191.78 49.2907 192.367 49.056C192.953 48.8107 193.631 48.688 194.399 48.688C195.049 48.688 195.684 48.784 196.303 48.976C196.932 49.168 197.481 49.4133 197.951 49.712L197.407 50.784Z" fill="black"/>
</svg>
