<svg width="20" height="20" viewBox="0 0 20 20" fill="none" xmlns="http://www.w3.org/2000/svg">
<path d="M12.9635 12.1231L12.5839 12.5227C12.5839 12.5227 11.6817 13.4725 9.21925 10.8799C6.75676 8.28737 7.65891 7.33756 7.65891 7.33756L7.89793 7.08593C8.48675 6.46603 8.54225 5.47081 8.02853 4.74425L6.97771 3.25801C6.3419 2.35875 5.1133 2.23996 4.38454 3.0072L3.07654 4.38428C2.71519 4.76472 2.47304 5.25787 2.50241 5.80495C2.57753 7.20455 3.17559 10.2158 6.5128 13.7293C10.0517 17.4552 13.3723 17.6032 14.7302 17.4692C15.1597 17.4268 15.5332 17.1952 15.8342 16.8783L17.0181 15.632C17.8172 14.7907 17.5918 13.3485 16.5694 12.76L14.9773 11.8436C14.306 11.4572 13.4882 11.5707 12.9635 12.1231Z" fill="#EE1D23"/>
<path d="M11.0496 1.56652C11.1048 1.22578 11.4268 0.994634 11.7676 1.04979C11.7887 1.05383 11.8566 1.06652 11.8921 1.07443C11.9633 1.09028 12.0624 1.11465 12.1861 1.15068C12.4334 1.22271 12.7789 1.34138 13.1936 1.53149C14.0238 1.91213 15.1287 2.57796 16.2752 3.72446C17.4217 4.87096 18.0875 5.9758 18.4681 6.80603C18.6583 7.22072 18.7769 7.56622 18.8489 7.81353C18.8849 7.93721 18.9093 8.0364 18.9252 8.1075C18.9331 8.14306 18.9389 8.17161 18.9429 8.1927L18.9478 8.2187C19.0028 8.55941 18.7738 8.89491 18.4331 8.95007C18.0933 9.00507 17.7733 8.77499 17.7168 8.43591C17.715 8.42674 17.7102 8.40233 17.7051 8.37924C17.6948 8.33308 17.677 8.25989 17.6488 8.16309C17.5924 7.96948 17.4945 7.68171 17.3318 7.32697C17.007 6.61838 16.4228 5.6399 15.3913 4.60834C14.3598 3.57679 13.3813 2.99263 12.6727 2.66778C12.3179 2.50514 12.0302 2.4072 11.8365 2.3508C11.7398 2.32261 11.6181 2.29468 11.5719 2.28441C11.2328 2.22788 10.9946 1.90628 11.0496 1.56652Z" fill="#EE1D23"/>
<path fill-rule="evenodd" clip-rule="evenodd" d="M11.2381 4.44108C11.3329 4.10918 11.6788 3.91699 12.0108 4.01182L11.8391 4.61278C12.0108 4.01182 12.0108 4.01182 12.0108 4.01182L12.012 4.01217L12.0133 4.01253L12.016 4.01334L12.0225 4.01528L12.039 4.02041C12.0515 4.02443 12.0673 4.02966 12.0859 4.0363C12.1233 4.04958 12.1728 4.06847 12.2335 4.09447C12.3549 4.1465 12.5208 4.22685 12.7246 4.34744C13.1324 4.58884 13.6893 4.98983 14.3434 5.64397C14.9976 6.29812 15.3985 6.85493 15.6399 7.26283C15.7605 7.46658 15.8408 7.63247 15.8929 7.75388C15.9189 7.81454 15.9378 7.86401 15.9511 7.90143C15.9578 7.92014 15.9629 7.93583 15.967 7.9484L15.9721 7.96489L15.974 7.97135L15.9748 7.97413L15.9752 7.97541C15.9752 7.97541 15.9756 7.97661 15.3746 8.14831L15.9756 7.97661C16.0704 8.3085 15.8782 8.65441 15.5463 8.74924C15.2173 8.84324 14.8743 8.65516 14.7761 8.32843L14.773 8.31945C14.7686 8.30692 14.7594 8.28228 14.744 8.24628C14.7132 8.17433 14.6573 8.05663 14.5643 7.89947C14.3784 7.58553 14.0428 7.11115 13.4595 6.52785C12.8763 5.94456 12.4018 5.60898 12.0879 5.42317C11.9308 5.33015 11.8131 5.27423 11.7411 5.2434C11.7051 5.22798 11.6804 5.21878 11.6679 5.21433L11.6589 5.21126C11.3323 5.11303 11.1441 4.77015 11.2381 4.44108Z" fill="#EE1D23"/>
</svg>
