<svg width="205" height="78" viewBox="0 0 205 78" fill="none" xmlns="http://www.w3.org/2000/svg">
<path d="M70.1646 51C69.3843 51 68.7155 50.8098 68.1584 50.4298C67.609 50.0494 67.2228 49.5287 67 48.8678L67.9554 48.2975C68.2819 49.347 69.026 49.8719 70.1885 49.8719C70.7617 49.8719 71.1994 49.7518 71.5021 49.5124C71.8047 49.2645 71.9559 48.9379 71.9559 48.5331C71.9559 48.1197 71.8047 47.8098 71.5021 47.6033C71.1994 47.3965 70.6941 47.1776 69.9855 46.9463C69.635 46.8305 69.3686 46.7394 69.1853 46.6736C69.0021 46.5992 68.7715 46.4915 68.4927 46.3512C68.2222 46.2025 68.0191 46.0537 67.8837 45.905C67.7482 45.7477 67.6251 45.5455 67.5135 45.2975C67.4101 45.0496 67.3583 44.7684 67.3583 44.4545C67.3583 43.7022 67.6131 43.1072 68.1225 42.6694C68.6319 42.2231 69.2529 42 69.9855 42C70.6463 42 71.2196 42.1736 71.7051 42.5207C72.1988 42.8678 72.569 43.3264 72.8157 43.8967L71.8842 44.4545C71.5259 43.562 70.893 43.1157 69.9855 43.1157C69.5317 43.1157 69.1656 43.2312 68.8868 43.4628C68.608 43.6941 68.4688 44.0083 68.4688 44.405C68.4688 44.785 68.6002 45.0744 68.8629 45.2727C69.1256 45.4711 69.5794 45.6776 70.2243 45.8926C70.4553 45.9669 70.6184 46.0204 70.7139 46.0537C70.8094 46.0867 70.9568 46.1444 71.1558 46.2273C71.3629 46.3098 71.514 46.376 71.6095 46.4256C71.7051 46.4752 71.8323 46.5453 71.9917 46.6364C72.1589 46.727 72.2824 46.8138 72.3619 46.8967C72.4414 46.9792 72.5332 47.0826 72.6365 47.2066C72.7481 47.3221 72.8276 47.4421 72.8754 47.5661C72.9231 47.6901 72.9631 47.8346 72.9948 48C73.0347 48.1569 73.0545 48.3262 73.0545 48.5083C73.0545 49.2684 72.7877 49.8758 72.2544 50.3306C71.7211 50.7769 71.0244 51 70.1646 51ZM76.0591 50.8388L73.6588 42.1612H74.8291L76.7397 49.3017L78.7698 42.1612H79.8924L81.9225 49.3017L83.8332 42.1612H85.0035L82.6032 50.8388H81.3135L79.3311 43.9091L77.3488 50.8388H76.0591ZM86.3171 42.1612H87.4277V50.8388H86.3171V42.1612ZM94.6903 42.1612V43.2521H92.2184V50.8388H91.1197V43.2521H88.6597V42.1612H94.6903ZM99.3596 51C98.0937 51 97.0466 50.5661 96.2189 49.6983C95.3986 48.8306 94.9889 47.7645 94.9889 46.5C94.9889 45.2355 95.3986 44.1694 96.2189 43.3017C97.0466 42.4339 98.0937 42 99.3596 42C100.124 42 100.824 42.1898 101.461 42.5702C102.106 42.9503 102.608 43.4628 102.966 44.1074L101.999 44.6901C101.76 44.2105 101.402 43.8305 100.924 43.5496C100.454 43.2602 99.9328 43.1157 99.3596 43.1157C98.396 43.1157 97.6079 43.438 96.9951 44.0826C96.3898 44.7273 96.0875 45.5331 96.0875 46.5C96.0875 47.4584 96.3898 48.2603 96.9951 48.905C97.6079 49.5496 98.396 49.8719 99.3596 49.8719C99.9328 49.8719 100.454 49.7313 100.924 49.4504C101.402 49.161 101.76 48.781 101.999 48.3099L102.966 48.8802C102.616 49.5248 102.118 50.0412 101.473 50.4298C100.828 50.8098 100.124 51 99.3596 51ZM109.514 42.1612H110.612V50.8388H109.514V46.9339H105.454V50.8388H104.343V42.1612H105.454V45.843H109.514V42.1612ZM120.582 46.5372V47.0578C120.582 48.1898 120.208 49.132 119.459 49.8843C118.711 50.6281 117.72 51 116.485 51C115.212 51 114.157 50.5661 113.321 49.6983C112.493 48.8221 112.079 47.756 112.079 46.5C112.079 45.2437 112.493 44.1818 113.321 43.314C114.157 42.4378 115.204 42 116.462 42C117.234 42 117.942 42.1941 118.587 42.5826C119.232 42.9627 119.73 43.4667 120.08 44.095L119.125 44.6777C118.886 44.2066 118.524 43.8305 118.038 43.5496C117.56 43.2602 117.031 43.1157 116.45 43.1157C115.494 43.1157 114.71 43.4419 114.097 44.095C113.484 44.7397 113.178 45.5412 113.178 46.5C113.178 47.4584 113.484 48.2603 114.097 48.905C114.718 49.5496 115.518 49.8719 116.497 49.8719C117.333 49.8719 118.01 49.6612 118.528 49.2397C119.045 48.8097 119.36 48.2561 119.471 47.5785H116.402V46.5372H120.582ZM123.162 49.7479H127.043V50.8388H122.051V42.1612H126.983V43.2521H123.162V45.9174H126.685V46.9959H123.162V49.7479ZM134.137 50.8388L133.456 48.8926H129.694L129.014 50.8388H127.832L130.948 42.1612H132.202L135.319 50.8388H134.137ZM130.077 47.814H133.074L131.569 43.5372L130.077 47.814ZM141.38 50.8388L139.506 47.5165H137.535V50.8388H136.425V42.1612H139.768C140.485 42.1612 141.098 42.4254 141.607 42.9545C142.117 43.4752 142.372 44.1074 142.372 44.8512C142.372 45.413 142.208 45.9255 141.882 46.3884C141.564 46.851 141.149 47.1776 140.64 47.3678L142.61 50.8388H141.38ZM137.535 43.2397V46.4752H139.768C140.182 46.4752 140.533 46.3179 140.819 46.0041C141.114 45.6818 141.261 45.2975 141.261 44.8512C141.261 44.405 141.114 44.0246 140.819 43.7107C140.533 43.3966 140.182 43.2397 139.768 43.2397H137.535ZM146.415 51C145.635 51 144.966 50.8098 144.408 50.4298C143.859 50.0494 143.473 49.5287 143.25 48.8678L144.205 48.2975C144.532 49.347 145.276 49.8719 146.439 49.8719C147.012 49.8719 147.45 49.7518 147.752 49.5124C148.055 49.2645 148.206 48.9379 148.206 48.5331C148.206 48.1197 148.055 47.8098 147.752 47.6033C147.45 47.3965 146.944 47.1776 146.236 46.9463C145.886 46.8305 145.619 46.7394 145.435 46.6736C145.253 46.5992 145.022 46.4915 144.743 46.3512C144.472 46.2025 144.269 46.0537 144.134 45.905C143.999 45.7477 143.875 45.5455 143.764 45.2975C143.66 45.0496 143.608 44.7684 143.608 44.4545C143.608 43.7022 143.863 43.1072 144.373 42.6694C144.882 42.2231 145.503 42 146.236 42C146.896 42 147.47 42.1736 147.955 42.5207C148.449 42.8678 148.819 43.3264 149.066 43.8967L148.134 44.4545C147.776 43.562 147.143 43.1157 146.236 43.1157C145.782 43.1157 145.416 43.2312 145.137 43.4628C144.859 43.6941 144.719 44.0083 144.719 44.405C144.719 44.785 144.85 45.0744 145.113 45.2727C145.376 45.4711 145.83 45.6776 146.474 45.8926C146.705 45.9669 146.868 46.0204 146.964 46.0537C147.06 46.0867 147.207 46.1444 147.406 46.2273C147.613 46.3098 147.764 46.376 147.86 46.4256C147.955 46.4752 148.083 46.5453 148.242 46.6364C148.409 46.727 148.533 46.8138 148.612 46.8967C148.692 46.9792 148.783 47.0826 148.887 47.2066C148.998 47.3221 149.078 47.4421 149.125 47.5661C149.173 47.6901 149.213 47.8346 149.245 48C149.285 48.1569 149.305 48.3262 149.305 48.5083C149.305 49.2684 149.038 49.8758 148.505 50.3306C147.971 50.7769 147.275 51 146.415 51ZM156.877 42.1612C157.65 42.1612 158.291 42.4296 158.8 42.9669C159.318 43.4957 159.576 44.157 159.576 44.9504C159.576 45.7353 159.318 46.3966 158.8 46.9339C158.291 47.4708 157.65 47.7397 156.877 47.7397H154.955V50.8388H153.844V42.1612H156.877ZM156.877 46.6612C157.339 46.6612 157.721 46.5 158.024 46.1777C158.326 45.8469 158.478 45.4378 158.478 44.9504C158.478 44.4545 158.326 44.0455 158.024 43.7231C157.721 43.4008 157.339 43.2397 156.877 43.2397H154.955V46.6612H156.877ZM163.064 50.8388L160.079 42.1612H161.273L163.697 49.4008L166.109 42.1612H167.316L164.318 50.8388H163.064ZM173.766 42.1612V43.2521H171.294V50.8388H170.195V43.2521H167.735V42.1612H173.766ZM174.344 50.9752C174.129 50.9752 173.946 50.8966 173.795 50.7397C173.643 50.5824 173.568 50.3926 173.568 50.1694C173.568 49.9463 173.643 49.7561 173.795 49.5992C173.946 49.4419 174.129 49.3636 174.344 49.3636C174.567 49.3636 174.75 49.4419 174.893 49.5992C175.044 49.7561 175.12 49.9463 175.12 50.1694C175.12 50.3926 175.044 50.5824 174.893 50.7397C174.75 50.8966 174.567 50.9752 174.344 50.9752ZM181.033 49.7479H184.639V50.8388H179.922V42.1612H181.033V49.7479ZM190.371 42.1612V43.2521H187.9V50.8388H186.801V43.2521H184.341V42.1612H190.371ZM194.85 42.1612C195.989 42.1612 196.932 42.5826 197.681 43.4256C198.437 44.2601 198.815 45.2851 198.815 46.5C198.815 47.7149 198.437 48.7438 197.681 49.5868C196.932 50.4212 195.989 50.8388 194.85 50.8388H191.59V42.1612H194.85ZM194.85 49.7479C195.702 49.7479 196.399 49.438 196.94 48.8182C197.481 48.1983 197.752 47.4255 197.752 46.5C197.752 45.5741 197.481 44.8017 196.94 44.1818C196.399 43.562 195.702 43.2521 194.85 43.2521H192.701V49.7479H194.85ZM200.224 50.9752C200.009 50.9752 199.826 50.8966 199.674 50.7397C199.523 50.5824 199.448 50.3926 199.448 50.1694C199.448 49.9463 199.523 49.7561 199.674 49.5992C199.826 49.4419 200.009 49.3636 200.224 49.3636C200.447 49.3636 200.63 49.4419 200.773 49.5992C200.925 49.7561 201 49.9463 201 50.1694C201 50.3926 200.925 50.5824 200.773 50.7397C200.63 50.8966 200.447 50.9752 200.224 50.9752Z" fill="white"/>
<path d="M66 16.2731H80.8801V19.9476H75.6807V33.6772H71.1498V19.9476H66V16.2731ZM90.5176 16.2731C92.8287 16.2731 94.6113 16.8112 95.8655 17.8869C97.1201 18.9463 97.7472 20.4441 97.7472 22.3807C97.7472 24.4166 97.1201 26.0055 95.8655 27.1476C94.6113 28.2733 92.8287 28.8359 90.5176 28.8359H87.2494V33.6772H82.7186V16.2731H90.5176ZM90.5176 25.2607C91.4584 25.2607 92.1764 25.0291 92.6716 24.5655C93.1834 24.1023 93.4391 23.4153 93.4391 22.5048C93.4391 21.6277 93.1834 20.9655 92.6716 20.5186C92.1764 20.0717 91.4584 19.8483 90.5176 19.8483H87.2494V25.2607H90.5176ZM89.7253 27.1724H94.1324L98.2671 33.6772H93.142L89.7253 27.1724ZM106.28 16.2731H110.935L118.214 33.6772H113.386L108.484 20.8166L103.482 33.6772H98.8277L106.28 16.2731ZM103.284 27.1228H113.411V30.549H103.284V27.1228ZM131.878 22.1076C131.317 21.3961 130.648 20.8332 129.872 20.4193C129.096 20.0058 128.329 19.7986 127.57 19.7986C126.91 19.7986 126.291 19.9313 125.713 20.1959C125.135 20.4441 124.632 20.8002 124.202 21.2634C123.773 21.7103 123.443 22.2484 123.212 22.8772C122.981 23.4898 122.865 24.1601 122.865 24.8883C122.865 25.6168 122.981 26.2953 123.212 26.9241C123.443 27.5367 123.773 28.0747 124.202 28.5379C124.632 29.0015 125.135 29.3658 125.713 29.6303C126.291 29.8786 126.91 30.0028 127.57 30.0028C128.296 30.0028 129.039 29.8208 129.798 29.4566C130.574 29.076 131.267 28.5713 131.878 27.9421L134.527 30.7476C133.9 31.4098 133.19 31.989 132.397 32.4855C131.605 32.9658 130.772 33.3382 129.897 33.6028C129.039 33.8677 128.18 34 127.322 34C126.018 34 124.813 33.7766 123.707 33.3297C122.601 32.8664 121.636 32.2291 120.81 31.4179C120.002 30.5905 119.366 29.6303 118.904 28.5379C118.442 27.4292 118.211 26.229 118.211 24.9379C118.211 23.6636 118.442 22.4885 118.904 21.4124C119.366 20.32 120.018 19.3684 120.86 18.5572C121.702 17.7464 122.684 17.1172 123.806 16.6703C124.945 16.2234 126.175 16 127.495 16C128.354 16 129.212 16.1241 130.07 16.3724C130.929 16.6044 131.738 16.9435 132.497 17.3903C133.256 17.8372 133.924 18.3671 134.502 18.9793L131.878 22.1076ZM136.467 16.2731H140.998V23.92L147.51 16.2731H152.759L140.998 29.3324V33.6772H136.467V16.2731ZM145.975 22.9517L153.155 33.6772H147.733L142.954 26.5269L145.975 22.9517ZM154.319 16.2731H169.224V19.2028L160.063 30.0772H169.373V33.6772H153.997V30.7724L163.158 19.8731H154.319V16.2731ZM171.744 16.2731H185.436V19.8483H176.275V23.1752H184.545V26.7255H176.275V30.1021H185.683V33.6772H171.744V16.2731ZM196.25 16.2731C198.561 16.2731 200.344 16.8112 201.598 17.8869C202.853 18.9463 203.48 20.4441 203.48 22.3807C203.48 24.4166 202.853 26.0055 201.598 27.1476C200.344 28.2733 198.561 28.8359 196.25 28.8359H192.982V33.6772H188.451V16.2731H196.25ZM196.25 25.2607C197.191 25.2607 197.909 25.0291 198.405 24.5655C198.916 24.1023 199.172 23.4153 199.172 22.5048C199.172 21.6277 198.916 20.9655 198.405 20.5186C197.909 20.0717 197.191 19.8483 196.25 19.8483H192.982V25.2607H196.25ZM195.458 27.1724H199.865L204 33.6772H198.875L195.458 27.1724Z" fill="white"/>
<path d="M18.1933 33.2985L1 3C3.39224 3 6.73122 4.80119 8.10164 5.70178L22.6787 27.1229C24.1738 28.8212 26.1673 29.7603 26.9769 30.0177L58 35.2282L56.6916 36H22.3049C20.3613 36 18.7541 34.199 18.1933 33.2985Z" fill="white"/>
<path d="M27.2762 40H55C54.6982 40.603 51.8565 42.6378 50.4735 43.5796L30.1053 45.0869C29.3508 45.0869 27.9049 46.5941 27.2762 47.3479L12 66V64.4927L24.0701 43.5796C25.277 41.0174 26.7106 40.1257 27.2762 40Z" fill="white"/>
<path d="M18.7137 41.3059L10 27L15.0057 39.8C15.7474 41.3059 15.562 42.9374 15.3765 43.5646L10.3709 54.4823C9.92583 55.9882 10.3091 58.1216 10.5563 59L18.1574 45.8236C19.3441 43.7152 19.0227 41.9334 18.7137 41.3059Z" fill="white"/>
<path d="M50.8328 73.179C49.888 73.179 49.078 72.9484 48.403 72.4869C47.7376 72.0253 47.2701 71.3934 47 70.5911L48.1571 69.899C48.5523 71.173 49.4541 71.8098 50.8617 71.8098C51.556 71.8098 52.0864 71.6642 52.4527 71.3735C52.819 71.0726 53.0023 70.6765 53.0023 70.1849C53.0023 69.6835 52.819 69.3073 52.4527 69.0564C52.0864 68.8056 51.4739 68.54 50.6158 68.259C50.1917 68.1187 49.8685 68.0081 49.6468 67.928C49.4252 67.8377 49.1453 67.7072 48.8079 67.5368C48.48 67.3563 48.2341 67.1757 48.0703 66.9952C47.9065 66.8045 47.7568 66.5589 47.6219 66.2579C47.4965 65.957 47.4339 65.6159 47.4339 65.2348C47.4339 64.3219 47.7423 63.5997 48.3596 63.0682C48.9768 62.5266 49.7289 62.2558 50.6158 62.2558C51.416 62.2558 52.1103 62.4664 52.6986 62.8877C53.2963 63.309 53.7446 63.8657 54.0437 64.5578L52.9155 65.2348C52.4816 64.1515 51.7151 63.6099 50.6158 63.6099C50.0662 63.6099 49.6226 63.7502 49.2852 64.0312C48.9479 64.3121 48.779 64.6932 48.779 65.1746C48.779 65.6362 48.9381 65.9871 49.2563 66.2278C49.5745 66.4686 50.1241 66.7195 50.9051 66.9801C51.1846 67.0704 51.3824 67.1355 51.4981 67.1757C51.6138 67.216 51.7921 67.2859 52.0333 67.3864C52.2838 67.4868 52.4672 67.5669 52.5829 67.6271C52.6986 67.6873 52.853 67.7727 53.0457 67.8829C53.2482 67.9931 53.3975 68.0984 53.4941 68.1988C53.5906 68.2993 53.7013 68.4245 53.8267 68.575C53.9616 68.7153 54.0581 68.8608 54.116 69.0113C54.1738 69.1618 54.2219 69.3374 54.2606 69.5379C54.3087 69.7286 54.3329 69.934 54.3329 70.1548C54.3329 71.0774 54.01 71.8147 53.3639 72.3665C52.7177 72.9081 51.8742 73.179 50.8328 73.179ZM64.0321 65.4605H65.3483L63.1064 72.9834H61.8192L60.127 67.4165L58.4348 72.9834H57.1475L54.9057 65.4605H56.2219L57.8128 71.1779L59.5195 65.4605H60.7344L62.4411 71.1929L64.0321 65.4605ZM67.2795 64.0914C67.0383 64.0914 66.8358 64.006 66.672 63.8356C66.5082 63.6652 66.4262 63.4594 66.4262 63.2187C66.4262 62.978 66.5082 62.7722 66.672 62.6018C66.8358 62.4213 67.0383 62.331 67.2795 62.331C67.5109 62.331 67.7087 62.4213 67.8725 62.6018C68.0363 62.7722 68.1184 62.978 68.1184 63.2187C68.1184 63.4594 68.0363 63.6652 67.8725 63.8356C67.7087 64.006 67.5109 64.0914 67.2795 64.0914ZM66.6431 72.9834V65.4605H67.9014V72.9834H66.6431ZM73.7551 66.7243H71.8315V70.8017C71.8315 71.173 71.8991 71.4386 72.034 71.5992C72.1786 71.7496 72.3956 71.8297 72.6848 71.8399C72.9741 71.8399 73.331 71.8297 73.7551 71.8098V72.9834C72.6559 73.1338 71.8506 73.0435 71.3397 72.7125C70.8288 72.3714 70.5732 71.7346 70.5732 70.8017V66.7243H69.1413V65.4605H70.5732V63.7453L71.8315 63.3541V65.4605H73.7551V66.7243ZM78.2764 73.179C77.1869 73.179 76.2804 72.8028 75.5573 72.0505C74.8341 71.2881 74.4725 70.3455 74.4725 69.2219C74.4725 68.0984 74.8341 67.1607 75.5573 66.4084C76.2804 65.646 77.1869 65.2649 78.2764 65.2649C78.9901 65.2649 79.6312 65.4455 80.2 65.8066C80.7691 66.1575 81.1933 66.6341 81.4728 67.2359L80.417 67.8678C80.234 67.4665 79.9494 67.1456 79.5636 66.9049C79.1876 66.6642 78.7587 66.5438 78.2764 66.5438C77.5532 66.5438 76.9457 66.7996 76.454 67.3111C75.972 67.8227 75.7308 68.4595 75.7308 69.2219C75.7308 69.9742 75.972 70.6061 76.454 71.1177C76.9457 71.6292 77.5532 71.885 78.2764 71.885C78.7587 71.885 79.1926 71.7696 79.5781 71.539C79.9639 71.2982 80.2579 70.9774 80.4603 70.5761L81.5306 71.223C81.2222 71.8147 80.7785 72.2913 80.2 72.6524C79.6215 73.0033 78.9804 73.179 78.2764 73.179ZM86.3744 65.2649C87.2231 65.2649 87.9029 65.5459 88.4138 66.1075C88.9251 66.6593 89.1803 67.4116 89.1803 68.3643V72.9834H87.922V68.4396C87.922 67.8276 87.7629 67.3563 87.4447 67.0253C87.1265 66.6841 86.6879 66.5137 86.1286 66.5137C85.5019 66.5137 84.9957 66.7195 84.6099 67.1306C84.2244 67.5319 84.0314 68.1537 84.0314 68.9963V72.9834H82.773V62.4514H84.0314V66.5438C84.5426 65.6911 85.3237 65.2649 86.3744 65.2649ZM98.4868 66.7243H96.5632V70.8017C96.5632 71.173 96.6308 71.4386 96.7657 71.5992C96.9103 71.7496 97.1272 71.8297 97.4165 71.8399C97.7058 71.8399 98.0627 71.8297 98.4868 71.8098V72.9834C97.3876 73.1338 96.5827 73.0435 96.0714 72.7125C95.5605 72.3714 95.3049 71.7346 95.3049 70.8017V66.7243H93.873V65.4605H95.3049V63.7453L96.5632 63.3541V65.4605H98.4868V66.7243ZM105.713 72.0355C104.97 72.7979 104.069 73.179 103.008 73.179C101.948 73.179 101.046 72.7979 100.304 72.0355C99.5708 71.273 99.2045 70.3353 99.2045 69.2219C99.2045 68.1086 99.5708 67.1708 100.304 66.4084C101.046 65.646 101.948 65.2649 103.008 65.2649C104.069 65.2649 104.97 65.646 105.713 66.4084C106.455 67.1708 106.827 68.1086 106.827 69.2219C106.827 70.3353 106.455 71.273 105.713 72.0355ZM103.008 71.9001C103.732 71.9001 104.339 71.6443 104.831 71.1327C105.323 70.6212 105.568 69.9844 105.568 69.2219C105.568 68.4595 105.323 67.8227 104.831 67.3111C104.339 66.7996 103.732 66.5438 103.008 66.5438C102.295 66.5438 101.692 66.7996 101.201 67.3111C100.709 67.8227 100.463 68.4595 100.463 69.2219C100.463 69.9844 100.709 70.6212 101.201 71.1327C101.692 71.6443 102.295 71.9001 103.008 71.9001ZM118.058 72.9834L115.788 68.9511H113.401V72.9834H112.056V62.4514H116.106C116.974 62.4514 117.716 62.7722 118.333 63.4143C118.95 64.0462 119.259 64.8135 119.259 65.7163C119.259 66.3982 119.061 67.0204 118.666 67.582C118.28 68.1435 117.779 68.54 117.162 68.7706L119.548 72.9834H118.058ZM113.401 63.7603V67.6873H116.106C116.607 67.6873 117.031 67.4966 117.379 67.1155C117.735 66.7244 117.914 66.2579 117.914 65.7163C117.914 65.1746 117.735 64.7131 117.379 64.3321C117.031 63.9511 116.607 63.7603 116.106 63.7603H113.401ZM121.283 69.8238C121.408 70.4959 121.702 71.0173 122.165 71.3885C122.637 71.7598 123.216 71.9452 123.901 71.9452C124.855 71.9452 125.55 71.5792 125.984 70.8469L127.054 71.4788C126.35 72.6121 125.289 73.179 123.872 73.179C122.724 73.179 121.789 72.8077 121.066 72.0656C120.352 71.3133 119.996 70.3654 119.996 69.2219C119.996 68.0886 120.348 67.1456 121.052 66.3933C121.755 65.6411 122.666 65.2649 123.785 65.2649C124.846 65.2649 125.709 65.6561 126.374 66.4385C127.049 67.2107 127.386 68.1435 127.386 69.237C127.386 69.4277 127.372 69.6233 127.343 69.8238H121.283ZM123.785 66.4987C123.11 66.4987 122.551 66.6991 122.107 67.1005C121.664 67.4917 121.389 68.0183 121.283 68.6803H126.114C126.007 67.9683 125.738 67.4266 125.304 67.0554C124.87 66.6841 124.364 66.4987 123.785 66.4987ZM128.833 72.9834V62H130.091V72.9834H128.833ZM132.647 64.0914C132.406 64.0914 132.204 64.006 132.04 63.8356C131.876 63.6652 131.794 63.4594 131.794 63.2187C131.794 62.978 131.876 62.7722 132.04 62.6018C132.204 62.4213 132.406 62.331 132.647 62.331C132.879 62.331 133.076 62.4213 133.24 62.6018C133.404 62.7722 133.486 62.978 133.486 63.2187C133.486 63.4594 133.404 63.6652 133.24 63.8356C133.076 64.006 132.879 64.0914 132.647 64.0914ZM132.011 72.9834V65.4605H133.269V72.9834H132.011ZM141.177 65.4605H142.435V72.9834H141.177V71.6894C140.55 72.6825 139.639 73.179 138.443 73.179C137.431 73.179 136.568 72.7979 135.854 72.0355C135.141 71.2633 134.784 70.3252 134.784 69.2219C134.784 68.1187 135.141 67.1859 135.854 66.4234C136.568 65.6512 137.431 65.2649 138.443 65.2649C139.639 65.2649 140.55 65.7614 141.177 66.7544V65.4605ZM138.602 71.9151C139.335 71.9151 139.947 71.6593 140.439 71.1478C140.931 70.6261 141.177 69.9844 141.177 69.2219C141.177 68.4595 140.931 67.8227 140.439 67.3111C139.947 66.7894 139.335 66.5288 138.602 66.5288C137.879 66.5288 137.271 66.7894 136.78 67.3111C136.288 67.8227 136.042 68.4595 136.042 69.2219C136.042 69.9844 136.288 70.6261 136.78 71.1478C137.271 71.6593 137.879 71.9151 138.602 71.9151ZM148.333 65.2649C149.346 65.2649 150.209 65.6512 150.922 66.4234C151.636 67.1859 151.993 68.1187 151.993 69.2219C151.993 70.3252 151.636 71.2633 150.922 72.0355C150.209 72.7979 149.346 73.179 148.333 73.179C147.138 73.179 146.227 72.6825 145.6 71.6894V72.9834H144.342V62.4514H145.6V66.7544C146.227 65.7614 147.138 65.2649 148.333 65.2649ZM148.174 71.9151C148.898 71.9151 149.505 71.6593 149.997 71.1478C150.489 70.6261 150.734 69.9844 150.734 69.2219C150.734 68.4595 150.489 67.8227 149.997 67.3111C149.505 66.7894 148.898 66.5288 148.174 66.5288C147.441 66.5288 146.829 66.7894 146.338 67.3111C145.846 67.8227 145.6 68.4595 145.6 69.2219C145.6 69.9844 145.846 70.6261 146.338 71.1478C146.829 71.6593 147.441 71.9151 148.174 71.9151ZM154.13 64.0914C153.89 64.0914 153.687 64.006 153.523 63.8356C153.359 63.6652 153.277 63.4594 153.277 63.2187C153.277 62.978 153.359 62.7722 153.523 62.6018C153.687 62.4213 153.89 62.331 154.13 62.331C154.362 62.331 154.56 62.4213 154.723 62.6018C154.888 62.7722 154.969 62.978 154.969 63.2187C154.969 63.4594 154.888 63.6652 154.723 63.8356C154.56 64.006 154.362 64.0914 154.13 64.0914ZM153.494 72.9834V65.4605H154.752V72.9834H153.494ZM156.672 72.9834V62H157.93V72.9834H156.672ZM160.486 64.0914C160.246 64.0914 160.043 64.006 159.879 63.8356C159.715 63.6652 159.633 63.4594 159.633 63.2187C159.633 62.978 159.715 62.7722 159.879 62.6018C160.043 62.4213 160.246 62.331 160.486 62.331C160.718 62.331 160.916 62.4213 161.079 62.6018C161.243 62.7722 161.325 62.978 161.325 63.2187C161.325 63.4594 161.243 63.6652 161.079 63.8356C160.916 64.006 160.718 64.0914 160.486 64.0914ZM159.85 72.9834V65.4605H161.108V72.9834H159.85ZM166.962 66.7243H165.038V70.8017C165.038 71.173 165.106 71.4386 165.241 71.5992C165.385 71.7496 165.602 71.8297 165.892 71.8399C166.181 71.8399 166.538 71.8297 166.962 71.8098V72.9834C165.863 73.1338 165.058 73.0435 164.547 72.7125C164.036 72.3714 163.78 71.7346 163.78 70.8017V66.7243H162.348V65.4605H163.78V63.7453L165.038 63.3541V65.4605H166.962V66.7243ZM173.655 65.4605H175L172.049 73.4498C171.741 74.3025 171.307 74.9495 170.748 75.3907C170.198 75.842 169.562 76.0425 168.839 75.9925V74.7738C169.726 74.8441 170.376 74.3326 170.791 73.2391L170.921 72.9533L167.768 65.4605H169.113L171.572 71.3584L173.655 65.4605Z" fill="#F2F2F2"/>
</svg>
