<svg width="35" height="34" viewBox="0 0 35 34" fill="none" xmlns="http://www.w3.org/2000/svg">
<path d="M10.5574 16.1269L0 0C1.46885 0 3.51913 0.958711 4.36066 1.43807L13.3115 12.8399C14.2295 13.7438 15.4536 14.2437 15.9508 14.3807L35 17.1541L34.1967 17.565H13.082C11.8885 17.565 10.9016 16.6062 10.5574 16.1269Z" fill="white"/>
<path d="M15.9508 19.8248H32.8197C32.6361 20.1535 30.9071 21.2628 30.0656 21.7764L17.6721 22.5982C17.2131 22.5982 16.3333 23.4199 15.9508 23.8308L6.65574 34V33.1782L14 21.7764C14.7344 20.3795 15.6066 19.8933 15.9508 19.8248Z" fill="white"/>
<path d="M10.9016 20.6465L5.5082 12.8399L8.60656 19.8248C9.06557 20.6465 8.95082 21.5368 8.83607 21.8792L5.73771 27.8369C5.4623 28.6586 5.69945 29.8228 5.85246 30.3021L10.5574 23.1118C11.2918 21.9613 11.0929 20.9889 10.9016 20.6465Z" fill="white"/>
</svg>
