<svg width="22" height="18" viewBox="0 0 22 18" fill="none" xmlns="http://www.w3.org/2000/svg">
<path d="M22 0C21.142 0.520842 19.4205 1.23067 18.4085 1.43541C18.3788 1.44328 18.3546 1.45341 18.326 1.46128C17.4317 0.55909 16.2063 0 14.85 0C12.1165 0 9.9 2.26673 9.9 5.06218C9.9 5.20955 9.8879 5.48066 9.9 5.62465C6.2117 5.62465 3.4045 3.64927 1.3915 1.12493C1.1726 1.68739 1.0769 2.57609 1.0769 3.41079C1.0769 4.98681 2.2814 6.53472 4.1569 7.49428C3.8115 7.5854 3.4309 7.65065 3.0349 7.65065C2.3958 7.65065 1.7193 7.47853 1.1 6.95656C1.1 6.97569 1.1 6.99369 1.1 7.01394C1.1 9.21655 3.3858 10.7161 5.4186 11.1334C5.0061 11.382 4.1745 11.4068 3.7686 11.4068C3.4826 11.4068 2.4706 11.2729 2.2 11.2212C2.7654 13.0267 4.8048 14.0414 6.7485 14.0774C5.2283 15.2968 4.1734 15.749 1.0604 15.749H0C1.9668 17.0382 4.4715 18 6.9817 18C15.1547 18 19.8 11.6295 19.8 5.62465C19.8 5.5279 19.7978 5.32542 19.7945 5.12181C19.7945 5.10156 19.8 5.08243 19.8 5.06218C19.8 5.03181 19.7912 5.00256 19.7912 4.97219C19.7879 4.8192 19.7846 4.67633 19.7813 4.60209C20.6503 3.96088 21.4038 3.16105 22 2.24986C21.2025 2.61209 20.3467 2.85507 19.448 2.96531C20.3654 2.40285 21.6689 1.06193 22 0Z" fill="white"/>
</svg>
